<svg xmlns="http://www.w3.org/2000/svg" xmlns:xlink="http://www.w3.org/1999/xlink" width="128" height="128" viewBox="0 0 128 128"><defs><clipPath id="b"><rect width="128" height="128"/></clipPath></defs><g id="a" clip-path="url(#b)"><g transform="translate(-18 -20)"><path d="M87.669,0a16.642,16.642,0,0,1,14.417,8.329l23.689,41.085a16.642,16.642,0,0,1,0,16.625l-23.689,41.085a16.642,16.642,0,0,1-14.417,8.329H40.331a16.642,16.642,0,0,1-14.417-8.329L2.225,66.04a16.642,16.642,0,0,1,0-16.625L25.913,8.329A16.642,16.642,0,0,1,40.331,0Z" transform="translate(139.454 20) rotate(90)" fill="#0080ff"/><path d="M28.337,4.17a8.321,8.321,0,0,1,14.424,0L69.976,51.457a8.321,8.321,0,0,1-7.212,12.472H8.333A8.321,8.321,0,0,1,1.122,51.457Z" transform="translate(121.603 48.451) rotate(90)" fill="#fff"/></g></g></svg>