<svg xmlns="http://www.w3.org/2000/svg" xmlns:xlink="http://www.w3.org/1999/xlink" width="16" height="16" viewBox="0 0 16 16"><defs><clipPath id="b"><rect width="16" height="16"/></clipPath></defs><g id="a" clip-path="url(#b)"><path d="M10.34,0a1.955,1.955,0,0,1,1.7,1.006L14.835,5.97a2.053,2.053,0,0,1,0,2.009l-2.794,4.964a1.955,1.955,0,0,1-1.7,1.006H4.757a1.955,1.955,0,0,1-1.7-1.006L.262,7.979a2.053,2.053,0,0,1,0-2.009L3.056,1.006A1.955,1.955,0,0,1,4.757,0Z" transform="translate(15.017 0.303) rotate(90)" fill="#0080ff"/><path d="M3.342.5a.97.97,0,0,1,1.7,0l3.21,5.713A1.006,1.006,0,0,1,7.4,7.724H.983A1.006,1.006,0,0,1,.132,6.217Z" transform="translate(12.86 3.659) rotate(90)" fill="#fff"/></g></svg>