<svg xmlns="http://www.w3.org/2000/svg" xmlns:xlink="http://www.w3.org/1999/xlink" width="128" height="128" viewBox="0 0 128 128"><defs><clipPath id="b"><rect width="128" height="128"/></clipPath></defs><g id="a" clip-path="url(#b)"><rect width="128" height="128" fill="#1a1a1a"/><g transform="translate(17 45.062)"><path d="M60.748,0a11.532,11.532,0,0,1,9.99,5.772L87.152,34.24a11.532,11.532,0,0,1,0,11.52L70.737,74.228A11.532,11.532,0,0,1,60.748,80h-32.8a11.532,11.532,0,0,1-9.99-5.772L1.542,45.76a11.532,11.532,0,0,1,0-11.52L17.956,5.772A11.532,11.532,0,0,1,27.946,0Z" transform="translate(87 -25.062) rotate(90)" fill="#0080ff"/><path d="M19.635,2.89a5.766,5.766,0,0,1,9.994,0L48.487,35.655a5.766,5.766,0,0,1-5,8.642H5.774a5.766,5.766,0,0,1-5-8.642Z" transform="translate(74.63 -5.348) rotate(90)" fill="#fff"/></g></g></svg>